<svg width="40" height="40" viewBox="0 0 40 40" fill="none" xmlns="http://www.w3.org/2000/svg">
<path fill-rule="evenodd" clip-rule="evenodd" d="M24.35 27.6667L24.6 27.4389V27.4278C24.705 27.318 24.8315 27.231 24.9715 27.172C25.1116 27.113 25.2622 27.0834 25.4141 27.085C25.5661 27.0865 25.7161 27.1193 25.8549 27.1811C25.9937 27.2429 26.1183 27.3326 26.2211 27.4445C26.3238 27.5564 26.4026 27.6882 26.4524 27.8317C26.5022 27.9753 26.5221 28.1275 26.5107 28.279C26.4994 28.4305 26.4571 28.5781 26.3864 28.7126C26.3158 28.8472 26.2183 28.9658 26.1 29.0611L25.85 29.2944L25.1833 29.9056C23.6778 31.3111 22.1166 32.6667 20.9278 33.6833C20.6698 33.9038 20.3492 34.0379 20.0111 34.0667H19.8666C19.4304 34.0579 19.015 33.8785 18.7096 33.5669C18.4042 33.2553 18.2332 32.8363 18.2333 32.4V30.2111C15.1778 30.0722 11.3278 29.0056 9.28886 26.8778C6.69998 24.1833 6.06109 20.4333 5.98331 17.7611C5.86109 13.1111 7.43331 9.52778 10.4278 7.67222C12.8055 6.2 16.0889 5.88889 18.4278 5.88889C20.185 5.88687 21.9381 6.05995 23.6611 6.40555C24.5069 6.58098 25.3292 6.85508 26.1111 7.22222C26.2446 7.28642 26.3642 7.37629 26.4629 7.4867C26.5617 7.59711 26.6378 7.72589 26.6868 7.86569C26.7358 8.0055 26.7568 8.15358 26.7486 8.3015C26.7403 8.44942 26.7031 8.59427 26.6389 8.72778C26.5747 8.86129 26.4848 8.98084 26.3744 9.07962C26.264 9.1784 26.1352 9.25447 25.9954 9.30348C25.8556 9.35249 25.7075 9.37348 25.5596 9.36525C25.4117 9.35703 25.2668 9.31976 25.1333 9.25555C24.5106 8.9656 23.8562 8.74933 23.1833 8.61111C21.6106 8.29403 20.0099 8.13583 18.4055 8.13889C15.5111 8.13889 13.0833 8.65555 11.5722 9.58889C8.48331 11.5056 8.12775 15.4444 8.19998 17.7222C8.2722 20 8.79442 23.1833 10.8944 25.3667C12.5778 27.1222 16.3666 28.0722 19.0778 28.0722C19.4422 28.0722 19.7918 28.2166 20.05 28.4738C20.3083 28.731 20.4541 29.08 20.4555 29.4444V31.1722C21.45 30.3167 22.5611 29.3167 23.6722 28.2944L24.35 27.6667ZM33.8612 18.7889C33.8448 18.8234 33.8262 18.8568 33.8056 18.8889L33.7556 18.9111C33.7334 18.9445 33.6889 18.9945 33.6889 18.9945C33.6705 19.0153 33.6538 19.0376 33.6389 19.0611L29.0556 24.0278C28.8019 24.2816 28.4598 24.4273 28.101 24.4345C27.7422 24.4416 27.3946 24.3096 27.131 24.0661C26.8674 23.8226 26.7082 23.4865 26.6869 23.1283C26.6656 22.7701 26.7838 22.4175 27.0167 22.1445L29.4445 19.5111H20.4778C20.1095 19.5111 19.7562 19.3648 19.4957 19.1043C19.2353 18.8439 19.0889 18.4906 19.0889 18.1222C19.0889 17.7539 19.2353 17.4006 19.4957 17.1402C19.7562 16.8797 20.1095 16.7334 20.4778 16.7334H29.4445L27.0389 14.1111C26.9149 13.9773 26.8185 13.8203 26.7551 13.6491C26.6918 13.478 26.6627 13.296 26.6697 13.1137C26.6767 12.9313 26.7195 12.7521 26.7957 12.5863C26.8719 12.4205 26.9801 12.2713 27.1139 12.1472C27.2478 12.0232 27.4048 11.9268 27.576 11.8634C27.7471 11.8001 27.9291 11.771 28.1114 11.778C28.2938 11.785 28.473 11.8278 28.6388 11.904C28.8046 11.9802 28.9538 12.0884 29.0778 12.2222L33.6612 17.1556L33.7112 17.2222L33.8056 17.3278C33.8169 17.3432 33.8263 17.36 33.8334 17.3778C33.854 17.4099 33.8726 17.4433 33.8889 17.4778L33.9112 17.6111V17.6667C33.9266 17.7028 33.9396 17.7399 33.95 17.7778C33.9483 17.8093 33.9483 17.8408 33.95 17.8722C33.9479 17.8907 33.9479 17.9093 33.95 17.9278V18.0389V18.1445C33.9522 18.1536 33.9522 18.1631 33.95 18.1722V18.2722V18.3889C33.9469 18.4073 33.9469 18.4261 33.95 18.4445C33.9469 18.4759 33.9469 18.5075 33.95 18.5389C33.9395 18.575 33.9265 18.6102 33.9112 18.6445V18.7L33.8612 18.7889Z" fill="white"/>
</svg>
